<svg width="442" height="74" viewBox="0 0 442 74" fill="none" xmlns="http://www.w3.org/2000/svg">
<path d="M62.5725 34.8425L62.4312 34.2431H49.4037V39.7569H57.1875C56.3794 43.5944 52.6294 45.6144 49.5662 45.6144C47.3375 45.6144 44.9881 44.6769 43.4331 43.17C42.6127 42.3623 41.9597 41.4006 41.5114 40.3402C41.0631 39.2797 40.8284 38.1413 40.8206 36.99C40.8206 34.6675 41.8644 32.3444 43.3831 30.8162C44.9019 29.2881 47.1956 28.4331 49.4762 28.4331C52.0881 28.4331 53.96 29.82 54.66 30.4525L58.5781 26.555C57.4287 25.545 54.2712 23 49.35 23C45.5531 23 41.9125 24.4544 39.2512 27.1069C36.625 29.7188 35.2656 33.4956 35.2656 37C35.2656 40.5044 36.5519 44.0925 39.0969 46.725C41.8162 49.5325 45.6675 51 49.6331 51C53.2413 51 56.6612 49.5863 59.0987 47.0212C61.495 44.4963 62.7344 41.0025 62.7344 37.34C62.7344 35.7981 62.5794 34.8825 62.5725 34.8425Z" fill="white"/>
<path d="M89.6445 34.348C89.5763 33.7429 89.2951 33.2741 88.8008 32.9418C88.3065 32.6051 87.6843 32.4368 86.9343 32.4368C86.3974 32.4368 85.9329 32.522 85.5408 32.6925C85.1488 32.8587 84.8441 33.0888 84.6268 33.3828C84.4137 33.6726 84.3072 34.0028 84.3072 34.3736C84.3072 34.6847 84.3796 34.9531 84.5245 35.179C84.6737 35.4048 84.8675 35.5945 85.1062 35.7479C85.3491 35.897 85.609 36.0227 85.886 36.125C86.163 36.223 86.4293 36.304 86.685 36.3679L87.9634 36.7003C88.381 36.8026 88.8093 36.9411 89.2482 37.1158C89.6871 37.2905 90.0941 37.5206 90.4691 37.8061C90.8441 38.0916 91.1467 38.4453 91.3768 38.8672C91.6112 39.2891 91.7283 39.794 91.7283 40.3821C91.7283 41.1236 91.5366 41.782 91.1531 42.3572C90.7738 42.9325 90.2219 43.3864 89.4975 43.7188C88.7773 44.0511 87.9059 44.2173 86.8832 44.2173C85.9031 44.2173 85.055 44.0618 84.3391 43.7507C83.6232 43.4396 83.0629 42.9986 82.658 42.4276C82.2532 41.8523 82.0295 41.1705 81.9869 40.3821H83.9684C84.0067 40.8551 84.1602 41.2493 84.4286 41.5646C84.7013 41.8757 85.0487 42.108 85.4705 42.2614C85.8967 42.4105 86.3633 42.4851 86.8704 42.4851C87.4286 42.4851 87.9251 42.3977 88.3597 42.223C88.7987 42.044 89.1438 41.7969 89.3952 41.4815C89.6467 41.1619 89.7724 40.7891 89.7724 40.3629C89.7724 39.9751 89.6616 39.6577 89.44 39.4105C89.2227 39.1634 88.9265 38.9588 88.5515 38.7969C88.1808 38.6349 87.761 38.4922 87.2923 38.3686L85.7454 37.9467C84.6971 37.6612 83.8661 37.2415 83.2525 36.6875C82.6431 36.1335 82.3384 35.4006 82.3384 34.4886C82.3384 33.7344 82.543 33.076 82.9521 32.5135C83.3612 31.951 83.9151 31.5142 84.614 31.2031C85.3129 30.8878 86.1012 30.7301 86.979 30.7301C87.8654 30.7301 88.6474 30.8857 89.3249 31.1967C90.0067 31.5078 90.5437 31.9361 90.9357 32.4815C91.3278 33.0227 91.5323 33.6449 91.5494 34.348H89.6445ZM94.4352 44V34.1818H96.3464V44H94.4352ZM95.4004 32.6669C95.068 32.6669 94.7825 32.5561 94.5439 32.3345C94.3095 32.1087 94.1923 31.8402 94.1923 31.5291C94.1923 31.2138 94.3095 30.9453 94.5439 30.7237C94.7825 30.4979 95.068 30.3849 95.4004 30.3849C95.7328 30.3849 96.0162 30.4979 96.2505 30.7237C96.4892 30.9453 96.6085 31.2138 96.6085 31.5291C96.6085 31.8402 96.4892 32.1087 96.2505 32.3345C96.0162 32.5561 95.7328 32.6669 95.4004 32.6669ZM103.534 47.8864C102.754 47.8864 102.083 47.7841 101.521 47.5795C100.962 47.375 100.506 47.1044 100.153 46.7678C99.799 46.4311 99.5348 46.0625 99.3601 45.6619L101.003 44.9844C101.118 45.1719 101.271 45.37 101.463 45.5788C101.659 45.7919 101.923 45.973 102.256 46.1222C102.592 46.2713 103.025 46.3459 103.553 46.3459C104.278 46.3459 104.876 46.169 105.349 45.8153C105.822 45.4659 106.059 44.9077 106.059 44.1406V42.2102H105.938C105.822 42.419 105.656 42.6513 105.439 42.907C105.226 43.1626 104.932 43.3842 104.557 43.5717C104.182 43.7592 103.694 43.853 103.093 43.853C102.317 43.853 101.619 43.6719 100.996 43.3097C100.379 42.9432 99.8885 42.4041 99.5263 41.6925C99.1683 40.9766 98.9893 40.0966 98.9893 39.0526C98.9893 38.0085 99.1662 37.1136 99.5199 36.3679C99.8778 35.6222 100.368 35.0511 100.99 34.6548C101.612 34.2543 102.317 34.054 103.106 34.054C103.715 34.054 104.207 34.1562 104.582 34.3608C104.957 34.5611 105.249 34.7955 105.458 35.0639C105.671 35.3324 105.835 35.5689 105.95 35.7734H106.091V34.1818H107.964V44.2173C107.964 45.0611 107.768 45.7536 107.376 46.2947C106.984 46.8359 106.453 47.2365 105.784 47.4964C105.119 47.7564 104.369 47.8864 103.534 47.8864ZM103.515 42.2678C104.065 42.2678 104.529 42.1399 104.908 41.8842C105.292 41.6243 105.582 41.2536 105.778 40.772C105.978 40.2862 106.078 39.7045 106.078 39.027C106.078 38.3665 105.98 37.7848 105.784 37.282C105.588 36.7791 105.3 36.3871 104.921 36.1058C104.542 35.8203 104.073 35.6776 103.515 35.6776C102.94 35.6776 102.46 35.8267 102.077 36.125C101.693 36.419 101.403 36.8196 101.207 37.3267C101.016 37.8338 100.92 38.4006 100.92 39.027C100.92 39.6705 101.018 40.2351 101.214 40.7209C101.41 41.2067 101.7 41.5859 102.083 41.8587C102.471 42.1314 102.948 42.2678 103.515 42.2678ZM112.938 38.1705V44H111.027V34.1818H112.862V35.7798H112.983C113.209 35.2599 113.563 34.8423 114.044 34.527C114.53 34.2116 115.141 34.054 115.879 34.054C116.548 34.054 117.134 34.1946 117.636 34.4759C118.139 34.7528 118.529 35.1662 118.806 35.7159C119.083 36.2656 119.222 36.9453 119.222 37.755V44H117.31V37.9851C117.31 37.2734 117.125 36.7173 116.754 36.3168C116.384 35.9119 115.874 35.7095 115.227 35.7095C114.783 35.7095 114.389 35.8054 114.044 35.9972C113.703 36.1889 113.433 36.4702 113.232 36.8409C113.036 37.2074 112.938 37.6506 112.938 38.1705ZM127.548 44V34.1818H129.46V44H127.548ZM128.514 32.6669C128.181 32.6669 127.896 32.5561 127.657 32.3345C127.423 32.1087 127.306 31.8402 127.306 31.5291C127.306 31.2138 127.423 30.9453 127.657 30.7237C127.896 30.4979 128.181 30.3849 128.514 30.3849C128.846 30.3849 129.129 30.4979 129.364 30.7237C129.602 30.9453 129.722 31.2138 129.722 31.5291C129.722 31.8402 129.602 32.1087 129.364 32.3345C129.129 32.5561 128.846 32.6669 128.514 32.6669ZM134.442 38.1705V44H132.531V34.1818H134.365V35.7798H134.487C134.713 35.2599 135.066 34.8423 135.548 34.527C136.034 34.2116 136.645 34.054 137.382 34.054C138.051 34.054 138.637 34.1946 139.14 34.4759C139.643 34.7528 140.033 35.1662 140.31 35.7159C140.587 36.2656 140.725 36.9453 140.725 37.755V44H138.814V37.9851C138.814 37.2734 138.629 36.7173 138.258 36.3168C137.887 35.9119 137.378 35.7095 136.73 35.7095C136.287 35.7095 135.893 35.8054 135.548 35.9972C135.207 36.1889 134.936 36.4702 134.736 36.8409C134.54 37.2074 134.442 37.6506 134.442 38.1705ZM151.181 44L148.292 34.1818H150.267L152.191 41.392H152.287L154.217 34.1818H156.192L158.11 41.3601H158.206L160.117 34.1818H162.092L159.209 44H157.26L155.265 36.9112H155.118L153.124 44H151.181ZM164.406 44V34.1818H166.317V44H164.406ZM165.371 32.6669C165.039 32.6669 164.753 32.5561 164.515 32.3345C164.28 32.1087 164.163 31.8402 164.163 31.5291C164.163 31.2138 164.28 30.9453 164.515 30.7237C164.753 30.4979 165.039 30.3849 165.371 30.3849C165.703 30.3849 165.987 30.4979 166.221 30.7237C166.46 30.9453 166.579 31.2138 166.579 31.5291C166.579 31.8402 166.46 32.1087 166.221 32.3345C165.987 32.5561 165.703 32.6669 165.371 32.6669ZM173.971 34.1818V35.7159H168.608V34.1818H173.971ZM170.047 31.8295H171.958V41.1172C171.958 41.4879 172.013 41.767 172.124 41.9545C172.235 42.1378 172.378 42.2635 172.552 42.3317C172.731 42.3956 172.925 42.4276 173.134 42.4276C173.287 42.4276 173.422 42.4169 173.537 42.3956C173.652 42.3743 173.741 42.3572 173.805 42.3445L174.15 43.9233C174.04 43.9659 173.882 44.0085 173.677 44.0511C173.473 44.098 173.217 44.1236 172.91 44.1278C172.407 44.1364 171.939 44.0469 171.504 43.8594C171.069 43.6719 170.718 43.3821 170.449 42.9901C170.181 42.598 170.047 42.1058 170.047 41.5135V31.8295ZM178.708 38.1705V44H176.797V30.9091H178.682V35.7798H178.804C179.034 35.2514 179.385 34.8317 179.858 34.5206C180.331 34.2095 180.949 34.054 181.712 34.054C182.385 34.054 182.973 34.1925 183.476 34.4695C183.983 34.7464 184.375 35.1598 184.652 35.7095C184.934 36.255 185.074 36.9368 185.074 37.755V44H183.163V37.9851C183.163 37.2649 182.978 36.7067 182.607 36.3104C182.236 35.9098 181.721 35.7095 181.06 35.7095C180.608 35.7095 180.203 35.8054 179.846 35.9972C179.492 36.1889 179.213 36.4702 179.008 36.8409C178.808 37.2074 178.708 37.6506 178.708 38.1705ZM202.401 35.0447C202.278 34.657 202.111 34.3097 201.903 34.0028C201.698 33.6918 201.453 33.4276 201.167 33.2102C200.882 32.9886 200.556 32.8203 200.189 32.7053C199.827 32.5902 199.429 32.5327 198.994 32.5327C198.257 32.5327 197.592 32.7223 197 33.1016C196.407 33.4808 195.939 34.0369 195.594 34.7699C195.253 35.4986 195.082 36.3913 195.082 37.4482C195.082 38.5092 195.255 39.4062 195.6 40.1392C195.945 40.8722 196.418 41.4283 197.019 41.8075C197.62 42.1868 198.304 42.3764 199.071 42.3764C199.782 42.3764 200.403 42.2315 200.931 41.9418C201.464 41.652 201.875 41.2429 202.165 40.7145C202.459 40.1818 202.606 39.5554 202.606 38.8352L203.117 38.9311H199.371V37.3011H204.517V38.7905C204.517 39.8899 204.282 40.8445 203.814 41.6541C203.349 42.4595 202.706 43.0817 201.883 43.5206C201.065 43.9595 200.128 44.179 199.071 44.179C197.886 44.179 196.846 43.9062 195.952 43.3608C195.061 42.8153 194.366 42.0419 193.868 41.0405C193.369 40.0348 193.12 38.8416 193.12 37.4609C193.12 36.4169 193.265 35.4794 193.555 34.6484C193.844 33.8175 194.251 33.1122 194.775 32.5327C195.304 31.9489 195.924 31.5036 196.635 31.1967C197.351 30.8857 198.133 30.7301 198.981 30.7301C199.689 30.7301 200.347 30.8345 200.956 31.0433C201.57 31.2521 202.116 31.5483 202.593 31.9318C203.074 32.3153 203.473 32.7713 203.788 33.2997C204.104 33.8239 204.317 34.4055 204.427 35.0447H202.401ZM211.506 44.1982C210.586 44.1982 209.783 43.9872 209.097 43.5653C208.411 43.1435 207.878 42.5533 207.499 41.7947C207.119 41.0362 206.93 40.1499 206.93 39.1357C206.93 38.1172 207.119 37.2266 207.499 36.4638C207.878 35.701 208.411 35.1087 209.097 34.6868C209.783 34.2649 210.586 34.054 211.506 34.054C212.427 34.054 213.23 34.2649 213.916 34.6868C214.602 35.1087 215.135 35.701 215.514 36.4638C215.893 37.2266 216.083 38.1172 216.083 39.1357C216.083 40.1499 215.893 41.0362 215.514 41.7947C215.135 42.5533 214.602 43.1435 213.916 43.5653C213.23 43.9872 212.427 44.1982 211.506 44.1982ZM211.513 42.5938C212.109 42.5938 212.604 42.4361 212.996 42.1207C213.388 41.8054 213.678 41.3857 213.865 40.8615C214.057 40.3374 214.153 39.7599 214.153 39.1293C214.153 38.5028 214.057 37.9276 213.865 37.4034C213.678 36.875 213.388 36.451 212.996 36.1314C212.604 35.8118 212.109 35.652 211.513 35.652C210.912 35.652 210.413 35.8118 210.017 36.1314C209.625 36.451 209.333 36.875 209.141 37.4034C208.954 37.9276 208.86 38.5028 208.86 39.1293C208.86 39.7599 208.954 40.3374 209.141 40.8615C209.333 41.3857 209.625 41.8054 210.017 42.1207C210.413 42.4361 210.912 42.5938 211.513 42.5938ZM222.852 44.1982C221.932 44.1982 221.128 43.9872 220.442 43.5653C219.756 43.1435 219.224 42.5533 218.844 41.7947C218.465 41.0362 218.275 40.1499 218.275 39.1357C218.275 38.1172 218.465 37.2266 218.844 36.4638C219.224 35.701 219.756 35.1087 220.442 34.6868C221.128 34.2649 221.932 34.054 222.852 34.054C223.773 34.054 224.576 34.2649 225.262 34.6868C225.948 35.1087 226.481 35.701 226.86 36.4638C227.239 37.2266 227.429 38.1172 227.429 39.1357C227.429 40.1499 227.239 41.0362 226.86 41.7947C226.481 42.5533 225.948 43.1435 225.262 43.5653C224.576 43.9872 223.773 44.1982 222.852 44.1982ZM222.858 42.5938C223.455 42.5938 223.949 42.4361 224.341 42.1207C224.733 41.8054 225.023 41.3857 225.211 40.8615C225.403 40.3374 225.498 39.7599 225.498 39.1293C225.498 38.5028 225.403 37.9276 225.211 37.4034C225.023 36.875 224.733 36.451 224.341 36.1314C223.949 35.8118 223.455 35.652 222.858 35.652C222.258 35.652 221.759 35.8118 221.363 36.1314C220.971 36.451 220.679 36.875 220.487 37.4034C220.3 37.9276 220.206 38.5028 220.206 39.1293C220.206 39.7599 220.3 40.3374 220.487 40.8615C220.679 41.3857 220.971 41.8054 221.363 42.1207C221.759 42.4361 222.258 42.5938 222.858 42.5938ZM234.179 47.8864C233.399 47.8864 232.728 47.7841 232.165 47.5795C231.607 47.375 231.151 47.1044 230.797 46.7678C230.444 46.4311 230.179 46.0625 230.005 45.6619L231.647 44.9844C231.762 45.1719 231.916 45.37 232.108 45.5788C232.304 45.7919 232.568 45.973 232.9 46.1222C233.237 46.2713 233.669 46.3459 234.198 46.3459C234.922 46.3459 235.521 46.169 235.994 45.8153C236.467 45.4659 236.703 44.9077 236.703 44.1406V42.2102H236.582C236.467 42.419 236.301 42.6513 236.083 42.907C235.87 43.1626 235.576 43.3842 235.201 43.5717C234.826 43.7592 234.338 43.853 233.738 43.853C232.962 43.853 232.263 43.6719 231.641 43.3097C231.023 42.9432 230.533 42.4041 230.171 41.6925C229.813 40.9766 229.634 40.0966 229.634 39.0526C229.634 38.0085 229.811 37.1136 230.164 36.3679C230.522 35.6222 231.012 35.0511 231.635 34.6548C232.257 34.2543 232.962 34.054 233.75 34.054C234.36 34.054 234.852 34.1562 235.227 34.3608C235.602 34.5611 235.894 34.7955 236.103 35.0639C236.316 35.3324 236.48 35.5689 236.595 35.7734H236.735V34.1818H238.608V44.2173C238.608 45.0611 238.412 45.7536 238.02 46.2947C237.628 46.8359 237.098 47.2365 236.429 47.4964C235.764 47.7564 235.014 47.8864 234.179 47.8864ZM234.159 42.2678C234.709 42.2678 235.174 42.1399 235.553 41.8842C235.936 41.6243 236.226 41.2536 236.422 40.772C236.623 40.2862 236.723 39.7045 236.723 39.027C236.723 38.3665 236.625 37.7848 236.429 37.282C236.233 36.7791 235.945 36.3871 235.566 36.1058C235.186 35.8203 234.718 35.6776 234.159 35.6776C233.584 35.6776 233.105 35.8267 232.721 36.125C232.338 36.419 232.048 36.8196 231.852 37.3267C231.66 37.8338 231.564 38.4006 231.564 39.027C231.564 39.6705 231.662 40.2351 231.858 40.7209C232.054 41.2067 232.344 41.5859 232.728 41.8587C233.115 42.1314 233.593 42.2678 234.159 42.2678ZM243.583 30.9091V44H241.672V30.9091H243.583ZM250.885 44.1982C249.918 44.1982 249.085 43.9915 248.386 43.5781C247.692 43.1605 247.155 42.5746 246.775 41.8203C246.4 41.0618 246.213 40.1733 246.213 39.1548C246.213 38.1491 246.4 37.2628 246.775 36.4957C247.155 35.7287 247.683 35.13 248.361 34.6996C249.042 34.2692 249.839 34.054 250.751 34.054C251.305 34.054 251.842 34.1456 252.362 34.3288C252.882 34.5121 253.349 34.7997 253.762 35.1918C254.175 35.5838 254.501 36.093 254.74 36.7195C254.979 37.3416 255.098 38.098 255.098 38.9886V39.6662H247.293V38.2344H253.225C253.225 37.7315 253.123 37.2862 252.918 36.8984C252.714 36.5064 252.426 36.1974 252.055 35.9716C251.689 35.7457 251.258 35.6328 250.764 35.6328C250.227 35.6328 249.758 35.7649 249.358 36.0291C248.961 36.2891 248.655 36.63 248.437 37.0518C248.224 37.4695 248.118 37.9233 248.118 38.4134V39.532C248.118 40.1882 248.233 40.7464 248.463 41.2067C248.697 41.6669 249.023 42.0185 249.441 42.2614C249.858 42.5 250.346 42.6193 250.905 42.6193C251.267 42.6193 251.597 42.5682 251.895 42.4659C252.194 42.3594 252.452 42.2017 252.669 41.9929C252.886 41.7841 253.052 41.5263 253.167 41.2195L254.976 41.5455C254.831 42.0781 254.572 42.5447 254.197 42.9453C253.826 43.3416 253.359 43.6506 252.797 43.8722C252.238 44.0895 251.601 44.1982 250.885 44.1982Z" fill="white"/>
<rect x="1" y="1" width="440" height="72" rx="8" stroke="url(#paint0_linear_1_163)"/>
<defs>
<linearGradient id="paint0_linear_1_163" x1="1" y1="42.5" x2="440.999" y2="45.0934" gradientUnits="userSpaceOnUse">
<stop stop-color="#A9A5FD"/>
<stop offset="1" stop-color="#EBD75C"/>
</linearGradient>
</defs>
</svg>
